<svg width="32" height="32" aria-hidden="true">
	<path d="M30.496 4h-.48v1.248c0 .416-.352.736-.768.736h-2.496a.724.724 0 01-.736-.736V4h-20v1.248c0 .416-.352.736-.768.736H2.752a.724.724 0 01-.736-.736V4h-.512C.672 4 0 4.672 0 5.504v20.992C0 27.328.672 28 1.504 28h.512v-1.248c0-.416.32-.768.736-.768h2.496c.416 0 .768.352.768.768V28h20v-1.248c0-.416.32-.768.736-.768h2.496c.416 0 .768.352.768.768V28h.48c.832 0 1.504-.672 1.504-1.504V5.504C32 4.672 31.328 4 30.496 4zM6.016 23.264c0 .384-.352.736-.768.736H2.752a.744.744 0 01-.736-.736v-2.528c0-.384.32-.736.736-.736h2.496c.416 0 .768.352.768.736v2.528zm0-6.016c0 .416-.352.736-.768.736H2.752a.724.724 0 01-.736-.736v-2.496c0-.416.32-.768.736-.768h2.496c.416 0 .768.352.768.768v2.496zm0-5.984c0 .384-.352.736-.768.736H2.752a.744.744 0 01-.736-.736V8.736c0-.384.32-.736.736-.736h2.496c.416 0 .768.352.768.736v2.528zm16.992 12.992c0 .416-.352.736-.768.736H9.76c-.416 0-.768-.32-.768-.736V18.24c0-.416.352-.736.768-.736h12.48c.416 0 .768.32.768.736v6.016zm0-10.496c0 .416-.352.736-.768.736H9.76c-.416 0-.768-.32-.768-.736V7.744c0-.416.352-.736.768-.736h12.48c.416 0 .768.32.768.736v6.016zm7.008 9.504c0 .384-.352.736-.768.736h-2.496a.744.744 0 01-.736-.736v-2.528c0-.384.32-.736.736-.736h2.496c.416 0 .768.352.768.736v2.528zm0-6.016c0 .416-.352.736-.768.736h-2.496a.724.724 0 01-.736-.736v-2.496c0-.416.32-.768.736-.768h2.496c.416 0 .768.352.768.768v2.496zm0-5.984c0 .384-.352.736-.768.736h-2.496a.744.744 0 01-.736-.736V8.736c0-.384.32-.736.736-.736h2.496c.416 0 .768.352.768.736v2.528z" fill="#34d399" fill-rule="nonzero"/>
</svg>