<?xml version="1.0" encoding="UTF-8" standalone="no"?>
<!DOCTYPE svg PUBLIC "-//W3C//DTD SVG 1.1//EN" "http://www.w3.org/Graphics/SVG/1.1/DTD/svg11.dtd">
<svg width="100%" height="100%" viewBox="0 0 32 32" version="1.1" xmlns="http://www.w3.org/2000/svg" xmlns:xlink="http://www.w3.org/1999/xlink" xml:space="preserve" xmlns:serif="http://www.serif.com/" style="fill-rule:evenodd;clip-rule:evenodd;stroke-linejoin:round;stroke-miterlimit:2;">
    <g transform="matrix(29.8686,0,0,29.8686,-0.00104173,25.6006)">
        <path d="M0.214,0.036C0.214,0.055 0.198,0.071 0.179,0.071L0.107,0.071C0.088,0.071 0.071,0.055 0.071,0.036L0.071,-0.036C0.071,-0.055 0.088,-0.071 0.107,-0.071L0.179,-0.071C0.198,-0.071 0.214,-0.055 0.214,-0.036L0.214,0.036ZM0.214,-0.179C0.214,-0.159 0.198,-0.143 0.179,-0.143L0.107,-0.143C0.088,-0.143 0.071,-0.159 0.071,-0.179L0.071,-0.25C0.071,-0.27 0.088,-0.286 0.107,-0.286L0.179,-0.286C0.198,-0.286 0.214,-0.27 0.214,-0.25L0.214,-0.179ZM0.214,-0.393C0.214,-0.373 0.198,-0.357 0.179,-0.357L0.107,-0.357C0.088,-0.357 0.071,-0.373 0.071,-0.393L0.071,-0.464C0.071,-0.484 0.088,-0.5 0.107,-0.5L0.179,-0.5C0.198,-0.5 0.214,-0.484 0.214,-0.464L0.214,-0.393ZM0.786,0.036C0.786,0.055 0.77,0.071 0.75,0.071L0.321,0.071C0.302,0.071 0.286,0.055 0.286,0.036L0.286,-0.25C0.286,-0.27 0.302,-0.286 0.321,-0.286L0.75,-0.286C0.77,-0.286 0.786,-0.27 0.786,-0.25L0.786,0.036ZM0.214,-0.607C0.214,-0.588 0.198,-0.571 0.179,-0.571L0.107,-0.571C0.088,-0.571 0.071,-0.588 0.071,-0.607L0.071,-0.679C0.071,-0.698 0.088,-0.714 0.107,-0.714L0.179,-0.714C0.198,-0.714 0.214,-0.698 0.214,-0.679L0.214,-0.607ZM1,0.036C1,0.055 0.984,0.071 0.964,0.071L0.893,0.071C0.873,0.071 0.857,0.055 0.857,0.036L0.857,-0.036C0.857,-0.055 0.873,-0.071 0.893,-0.071L0.964,-0.071C0.984,-0.071 1,-0.055 1,-0.036L1,0.036ZM0.786,-0.393C0.786,-0.373 0.77,-0.357 0.75,-0.357L0.321,-0.357C0.302,-0.357 0.286,-0.373 0.286,-0.393L0.286,-0.679C0.286,-0.698 0.302,-0.714 0.321,-0.714L0.75,-0.714C0.77,-0.714 0.786,-0.698 0.786,-0.679L0.786,-0.393ZM1,-0.179C1,-0.159 0.984,-0.143 0.964,-0.143L0.893,-0.143C0.873,-0.143 0.857,-0.159 0.857,-0.179L0.857,-0.25C0.857,-0.27 0.873,-0.286 0.893,-0.286L0.964,-0.286C0.984,-0.286 1,-0.27 1,-0.25L1,-0.179ZM1,-0.393C1,-0.373 0.984,-0.357 0.964,-0.357L0.893,-0.357C0.873,-0.357 0.857,-0.373 0.857,-0.393L0.857,-0.464C0.857,-0.484 0.873,-0.5 0.893,-0.5L0.964,-0.5C0.984,-0.5 1,-0.484 1,-0.464L1,-0.393ZM1,-0.607C1,-0.588 0.984,-0.571 0.964,-0.571L0.893,-0.571C0.873,-0.571 0.857,-0.588 0.857,-0.607L0.857,-0.679C0.857,-0.698 0.873,-0.714 0.893,-0.714L0.964,-0.714C0.984,-0.714 1,-0.698 1,-0.679L1,-0.607ZM1.071,-0.696C1.071,-0.746 1.031,-0.786 0.982,-0.786L0.089,-0.786C0.04,-0.786 0,-0.746 0,-0.696L0,0.054C0,0.103 0.04,0.143 0.089,0.143L0.982,0.143C1.031,0.143 1.071,0.103 1.071,0.054L1.071,-0.696Z" style="fill:rgb(52,211,153);fill-rule:nonzero;"/>
    </g>
</svg>
