<svg viewBox="0 0 480 710" xmlns="http://www.w3.org/2000/svg" xml:space="preserve" style="fill-rule:evenodd;clip-rule:evenodd;stroke-linejoin:round;stroke-miterlimit:2"><path style="fill:#f3f3f5;fill-rule:nonzero" d="M0 0h480v710H0z"/><path d="M330 235H150c-16.546 0-30 13.454-30 30v180c0 16.546 13.454 30 30 30h180c16.546 0 30-13.454 30-30V265c0-16.546-13.454-30-30-30Zm0 220H150c-5.515 0-10-4.485-10-10v-25.86l50-50 57.93 57.926A9.943 9.943 0 0 0 255 430a9.961 9.961 0 0 0 7.07-2.93c3.878-3.879 3.878-10.261 0-14.14l-25.43-25.43L300 324.146l40 40V445c0 5.515-4.485 10-10 10ZM150 255h180c5.515 0 10 4.485 10 10v70.86l-32.93-32.93a10 10 0 0 0-14.14 0l-70.43 70.43-25.43-25.43a10 10 0 0 0-14.14 0L140 390.86V265c0-5.515 4.485-10 10-10Zm50 40c0 11.045-8.955 20-20 20s-20-8.955-20-20 8.955-20 20-20 20 8.955 20 20Z"/></svg>